<svg width="52" height="51" viewBox="0 0 52 51" fill="none" xmlns="http://www.w3.org/2000/svg">
<ellipse cx="25.924" cy="25.6834" rx="25.8354" ry="25.1365" fill="white"/>
<path d="M35.663 35.5503V33.1908H20.4847L21.4535 30.8314L36.3088 28.9009L38.8924 16.031H19.0314L17.9011 9.59607H13.057V11.741H16.6094L20.0003 29.7589L17.9011 35.3358V38.5533C17.9011 40.2693 19.0314 41.7707 20.3232 41.7707C21.615 41.7707 22.7453 40.2693 22.7453 38.5533C22.7453 36.8373 21.615 35.3358 20.3232 35.3358H32.4335V38.5533C32.4335 40.2693 33.5638 41.7707 34.8556 41.7707C36.1474 41.7707 37.2777 40.2693 37.2777 38.5533C37.2777 37.0518 36.6318 35.9793 35.663 35.5503ZM19.5158 18.176H36.7932L35.0171 26.7559L21.4535 28.6864L19.5158 18.176Z" fill="#1C2E45" fill-opacity="0.6"/>
</svg>
