<svg width="23" height="25" viewBox="0 0 23 25" fill="none" xmlns="http://www.w3.org/2000/svg">
<g clip-path="url(#clip0_2032_416)">
<path d="M0.642792 1.13347V5.28047C0.642792 5.56597 0.794784 5.83047 1.04146 5.97297L11.1138 11.8075C11.645 12.1155 11.645 12.885 11.1138 13.193L1.04146 19.0275C0.794784 19.1705 0.642792 19.4345 0.642792 19.72V23.867C0.642792 24.4825 1.30707 24.8675 1.83829 24.5595L21.4602 13.193C21.9914 12.885 21.9914 12.1155 21.4602 11.8075L1.83829 0.440468C1.30707 0.132968 0.642792 0.517468 0.642792 1.13347Z" fill="black"/>
<path d="M21.4602 11.8075L1.83829 0.440459C1.74212 0.384459 1.64145 0.358459 1.54079 0.345459L20.4635 11.307C20.9947 11.615 20.9947 12.3845 20.4635 12.6925L0.841627 24.0595C0.791794 24.0885 0.739469 24.1055 0.688141 24.1225C0.841628 24.5795 1.38631 24.8215 1.83829 24.5595L21.4602 13.193C21.9919 12.885 21.9919 12.115 21.4602 11.8075Z" fill="black"/>
<path d="M0.642792 1.13347V5.28047C0.642792 5.56597 0.794784 5.83047 1.04146 5.97297L11.1138 11.8075C11.645 12.1155 11.645 12.885 11.1138 13.193L1.04146 19.0275C0.794784 19.1705 0.642792 19.4345 0.642792 19.72V23.867C0.642792 24.4825 1.30707 24.8675 1.83829 24.5595L21.4602 13.193C21.9914 12.885 21.9914 12.1155 21.4602 11.8075L1.83829 0.440468C1.30707 0.132968 0.642792 0.517468 0.642792 1.13347Z" stroke="black" stroke-miterlimit="10"/>
</g>
<defs>
<clipPath id="clip0_2032_416">
<rect width="23" height="25" fill="white"/>
</clipPath>
</defs>
</svg>
