<svg width="30" height="30" viewBox="0 0 37 37" fill="none" xmlns="http://www.w3.org/2000/svg">
<path d="M18.5 2.41304C22.7651 2.41773 26.8542 4.1141 29.87 7.12998C32.8859 10.1459 34.5823 14.2349 34.587 18.5C34.5947 21.0884 33.9707 23.6396 32.7691 25.9322C31.606 28.1497 29.9467 30.0688 27.9205 31.5401C25.1788 33.5208 21.8824 34.5869 18.5 34.5869C15.1176 34.5869 11.8213 33.5208 9.07949 31.5401C7.05238 30.0693 5.39248 28.1501 4.22927 25.9322C3.02828 23.6394 2.40484 21.0882 2.41305 18.5C2.41774 14.2349 4.11411 10.1459 7.12998 7.12998C10.1459 4.1141 14.2349 2.41773 18.5 2.41304ZM18.5 0C14.8411 0 11.2643 1.08501 8.22196 3.11781C5.17965 5.15062 2.80846 8.03992 1.40824 11.4204C0.00801574 14.8008 -0.358346 18.5205 0.355481 22.1092C1.06931 25.6978 2.83126 28.9942 5.41853 31.5815C8.0058 34.1687 11.3022 35.9307 14.8908 36.6445C18.4795 37.3583 22.1992 36.992 25.5796 35.5918C28.9601 34.1915 31.8494 31.8204 33.8822 28.778C35.915 25.7357 37 22.159 37 18.5C37 13.5935 35.0509 8.88795 31.5815 5.41852C28.1121 1.9491 23.4065 0 18.5 0Z" fill="#1A1A1A"/>
<path d="M19.6695 23.3389C21.5924 23.3414 23.4357 24.1065 24.7952 25.4663C26.1547 26.8261 26.9194 28.6696 26.9215 30.5925V32.2012C24.3873 33.7559 21.4723 34.5788 18.4992 34.5788C15.5261 34.5788 12.6111 33.7559 10.0769 32.2012V30.5925C10.079 28.6696 10.8437 26.8261 12.2032 25.4663C13.5627 24.1065 15.406 23.3414 17.3289 23.3389H19.6695ZM19.6695 20.9258H17.3289C16.0595 20.9258 14.8026 21.1759 13.6298 21.6617C12.4571 22.1475 11.3916 22.8596 10.4941 23.7572C9.59657 24.6549 8.88468 25.7205 8.39906 26.8933C7.91344 28.0661 7.66361 29.3231 7.66382 30.5925V33.4881C10.8172 35.7668 14.6087 36.9933 18.4992 36.9933C22.3897 36.9933 26.1812 35.7668 29.3346 33.4881V30.5925C29.3348 29.3231 29.0849 28.0661 28.5993 26.8933C28.1137 25.7205 27.4018 24.6549 26.5043 23.7572C25.6068 22.8596 24.5413 22.1475 23.3685 21.6617C22.1958 21.1759 20.9389 20.9258 19.6695 20.9258Z" fill="#1A1A1A"/>
<path d="M18.5 11.7934C19.0988 11.7934 19.6842 11.971 20.1822 12.3037C20.6801 12.6364 21.0681 13.1094 21.2972 13.6627C21.5263 14.216 21.5862 14.8248 21.4692 15.4122C21.3523 15.9995 21.0638 16.539 20.6402 16.9623C20.2166 17.3856 19.677 17.6739 19.0896 17.7905C18.5022 17.9071 17.8934 17.847 17.3402 17.6176C16.7871 17.3882 16.3143 16.9999 15.9818 16.5018C15.6494 16.0037 15.4721 15.4182 15.4724 14.8193C15.4732 14.0168 15.7925 13.2473 16.3602 12.68C16.9278 12.1127 17.6974 11.7938 18.5 11.7934ZM18.5 9.38031C17.4238 9.37999 16.3717 9.69885 15.4767 10.2965C14.5818 10.8942 13.8842 11.7439 13.4722 12.7381C13.0602 13.7324 12.9523 14.8264 13.1622 15.8819C13.3721 16.9375 13.8903 17.907 14.6513 18.668C15.4122 19.429 16.3818 19.9472 17.4373 20.1571C18.4929 20.3669 19.5869 20.2591 20.5811 19.8471C21.5753 19.4351 22.425 18.7375 23.0227 17.8426C23.6204 16.9476 23.9393 15.8955 23.939 14.8193C23.9385 13.3769 23.3654 11.9937 22.3454 10.9738C21.3255 9.95391 19.9423 9.38074 18.5 9.38031Z" fill="#1A1A1A"/>
</svg>
