<svg width="36" height="36" viewBox="0 0 36 36" fill="none" xmlns="http://www.w3.org/2000/svg">
<path d="M28.1585 35.75H7.53347C6.38602 35.7497 5.25378 35.4875 4.22311 34.9831C3.19245 34.4788 2.29058 33.7457 1.58629 32.8398C0.882012 31.9339 0.393923 30.8792 0.159257 29.756C-0.0754082 28.6328 -0.050452 27.4708 0.232222 26.3587L4.41222 9.29497C4.4875 8.9899 4.66501 8.7198 4.91519 8.52967C5.16537 8.33953 5.47312 8.24082 5.78722 8.24997H28.8185C29.1218 8.23609 29.4211 8.32298 29.6699 8.49709C29.9186 8.6712 30.1027 8.92274 30.1935 9.21247L35.391 25.9325C35.7463 27.0681 35.8282 28.2717 35.6298 29.4449C35.4315 30.6182 34.9586 31.728 34.2497 32.6837C33.5525 33.6435 32.6358 34.4226 31.5762 34.956C30.5165 35.4894 29.3447 35.7616 28.1585 35.75ZM6.81847 11L2.84472 27.0187C2.66777 27.7255 2.65359 28.4632 2.80325 29.1762C2.95292 29.8892 3.26252 30.559 3.70871 31.1349C4.15491 31.7109 4.72605 32.178 5.37906 32.5011C6.03208 32.8241 6.74993 32.9947 7.47847 33H28.1035C28.8518 33.0012 29.5897 32.8248 30.2566 32.4854C30.9235 32.146 31.5003 31.6532 31.9397 31.0475C32.3918 30.4383 32.6935 29.7309 32.8201 28.983C32.9467 28.235 32.8948 27.4678 32.6685 26.7437L27.8285 11H6.81847Z" fill="black"/>
<path d="M23.3185 19.25C22.9538 19.25 22.6041 19.1051 22.3462 18.8473C22.0883 18.5894 21.9435 18.2397 21.9435 17.875V6.875C21.9435 5.78098 21.5089 4.73177 20.7353 3.95818C19.9617 3.1846 18.9125 2.75 17.8185 2.75C16.7245 2.75 15.6753 3.1846 14.9017 3.95818C14.1281 4.73177 13.6935 5.78098 13.6935 6.875V17.875C13.6935 18.2397 13.5486 18.5894 13.2908 18.8473C13.0329 19.1051 12.6832 19.25 12.3185 19.25C11.9538 19.25 11.6041 19.1051 11.3462 18.8473C11.0883 18.5894 10.9435 18.2397 10.9435 17.875V6.875C10.9435 5.05164 11.6678 3.30295 12.9571 2.01364C14.2464 0.724328 15.9951 0 17.8185 0C19.6418 0 21.3905 0.724328 22.6798 2.01364C23.9692 3.30295 24.6935 5.05164 24.6935 6.875V17.875C24.6935 18.2397 24.5486 18.5894 24.2908 18.8473C24.0329 19.1051 23.6832 19.25 23.3185 19.25Z" fill="black"/>
</svg>
