<svg width="24" height="27" viewBox="0 0 24 27" fill="none" xmlns="http://www.w3.org/2000/svg">
<path d="M22.5803 1.81224V6.01643C22.5803 6.30587 22.4257 6.57402 22.1748 6.71848L11.9299 12.6334C11.3896 12.9457 11.3896 13.7258 11.9299 14.038L22.1753 19.953C22.4262 20.098 22.5808 20.3656 22.5808 20.6551V24.8593C22.5808 25.4832 21.9051 25.8735 21.3648 25.5613L1.40526 14.0375C0.864912 13.7253 0.864912 12.9452 1.40526 12.6329L21.3643 1.10968C21.9046 0.797944 22.5803 1.18775 22.5803 1.81224Z" fill="black"/>
<path d="M22.1748 19.953L20.9704 19.2576C20.9638 19.2794 20.9587 19.3032 20.9542 19.3265L21.1615 19.4461C21.4124 19.5911 21.567 19.8587 21.567 20.1482V24.3524C21.567 24.8633 21.1138 25.2105 20.6531 25.1507L21.3648 25.5613C21.9051 25.8736 22.5808 25.4833 22.5808 24.8593V20.6551C22.5803 20.3651 22.4257 20.0975 22.1748 19.953Z" fill="black"/>
<path d="M11.9299 12.6335L22.1753 6.7185C22.4262 6.57352 22.5808 6.30588 22.5808 6.01645V1.81226C22.5808 1.24707 22.0273 0.879569 21.5209 1.04583C21.5482 1.12693 21.567 1.21209 21.567 1.30536V5.50955C21.567 5.79899 21.4124 6.06714 21.1615 6.2116L10.9161 12.1266C10.8766 12.1529 10.5385 12.3881 10.5106 12.8286C10.4817 13.2904 10.8193 13.5722 10.8517 13.5981C11.1756 13.8226 11.499 14.0467 11.823 14.2712C11.8067 14.2145 11.7875 14.1131 11.8326 14.0127C11.8382 14 11.8447 13.9879 11.8513 13.9772C11.3972 13.6361 11.419 12.928 11.9299 12.6335Z" fill="black"/>
<path d="M22.5803 1.81224V6.01643C22.5803 6.30587 22.4257 6.57402 22.1748 6.71848L11.9299 12.6334C11.3896 12.9457 11.3896 13.7258 11.9299 14.038L22.1753 19.953C22.4262 20.098 22.5808 20.3656 22.5808 20.6551V24.8593C22.5808 25.4832 21.9051 25.8735 21.3648 25.5613L1.40526 14.0375C0.864912 13.7253 0.864912 12.9452 1.40526 12.6329L21.3643 1.10968C21.9046 0.797944 22.5803 1.18775 22.5803 1.81224Z" stroke="black" stroke-miterlimit="10"/>
</svg>
